<?xml version="1.0" encoding="iso-8859-1"?>
<!-- Generator: Adobe Illustrator 19.0.0, SVG Export Plug-In . SVG Version: 6.00 Build 0)  -->
<svg version="1.1" id="Capa_1" xmlns="http://www.w3.org/2000/svg" xmlns:xlink="http://www.w3.org/1999/xlink" x="0px" y="0px"
	 viewBox="0 0 512 512" style="enable-background:new 0 0 512 512;" xml:space="preserve">
<g>
	<g>
		<g>
			<path d="M73.143,388.941V82.286c0-20.198-16.374-36.571-36.571-36.571C16.374,45.714,0,62.088,0,82.286v306.656
				C20.765,370.162,52.378,370.162,73.143,388.941z"/>
			<path d="M320,182.857v-9.143c0.01-5.02-2.048-9.823-5.69-13.279c-3.642-3.455-8.547-5.258-13.56-4.985
				c-10.055,1.045-17.606,9.663-17.321,19.768v7.638c-0.01,10.095-8.191,18.276-18.286,18.286h-45.714v36.571h9.143
				c10.029-0.009,19.621,4.105,26.528,11.377c6.906,7.272,10.521,17.063,9.995,27.078c-1.405,19.849-18.132,35.108-38.027,34.688
				h-7.638v54.857h45.714v-9.143c-0.011-9.698,3.835-19.002,10.69-25.862c6.855-6.86,16.157-10.713,25.855-10.709
				c0.634,0,1.268,0.013,1.911,0.049c19.849,1.406,35.107,18.132,34.687,38.027v7.638H384v-54.857h-7.638
				c-19.895,0.42-36.622-14.839-38.027-34.688c-0.526-10.015,3.088-19.806,9.995-27.078c6.907-7.272,16.498-11.386,26.528-11.377
				H384v-36.571h-45.714C328.191,201.133,320.01,192.952,320,182.857z"/>
			<path d="M502.857,91.429H91.429v338.286c0,5.049-4.093,9.143-9.143,9.143c-5.049,0-9.143-4.093-9.143-9.143
				c0-20.198-16.374-36.571-36.571-36.571C16.374,393.143,0,409.516,0,429.714s16.374,36.571,36.571,36.571h466.286
				c5.047-0.005,9.138-4.095,9.143-9.143V100.571C511.995,95.524,507.905,91.434,502.857,91.429z M182.857,429.714h-27.429
				c-15.142-0.017-27.412-12.287-27.429-27.429v-27.429c0-5.049,4.093-9.143,9.143-9.143c5.049,0,9.143,4.093,9.143,9.143v27.429
				c0.007,5.047,4.096,9.136,9.143,9.143h27.429c5.049,0,9.143,4.093,9.143,9.143C192,425.621,187.907,429.714,182.857,429.714z
				 M182.857,146.286h-27.429c-5.047,0.007-9.136,4.096-9.143,9.143v27.429c0,5.049-4.093,9.143-9.143,9.143
				c-5.049,0-9.143-4.093-9.143-9.143v-27.429c0.017-15.142,12.287-27.412,27.429-27.429h27.429c5.049,0,9.143,4.093,9.143,9.143
				C192,142.192,187.907,146.286,182.857,146.286z M402.286,237.714C402.276,247.809,394.095,255.99,384,256h-9.143
				c-5.021-0.01-9.823,2.048-13.279,5.69c-3.455,3.642-5.258,8.547-4.985,13.56c1.045,10.055,9.663,17.606,19.768,17.321H384
				c10.095,0.01,18.276,8.191,18.286,18.286v54.857C402.276,375.809,394.095,383.99,384,384h-45.714
				c-10.095-0.01-18.276-8.191-18.286-18.286v-7.638c0.285-10.105-7.266-18.723-17.321-19.768c-5.013-0.274-9.917,1.529-13.56,4.985
				c-3.642,3.455-5.7,8.258-5.69,13.279v9.143c-0.01,10.095-8.191,18.276-18.286,18.286h-45.714
				c-10.095-0.01-18.276-8.191-18.286-18.286v-54.857c0.01-10.095,8.191-18.276,18.286-18.286h7.638
				c10.105,0.285,18.723-7.266,19.768-17.321c0.274-5.013-1.529-9.917-4.985-13.56c-3.455-3.642-8.258-5.7-13.279-5.69h-9.143
				c-10.095-0.01-18.276-8.191-18.286-18.286v-36.571c0.01-10.095,8.191-18.276,18.286-18.286h45.714v-7.638
				c-0.42-19.895,14.839-36.622,34.688-38.027c10.016-0.528,19.808,3.086,27.081,9.993c7.272,6.907,11.385,16.5,11.374,26.53v9.143
				H384c10.095,0.01,18.276,8.191,18.286,18.286V237.714z M475.429,402.286c-0.017,15.142-12.287,27.412-27.429,27.429h-27.429
				c-5.049,0-9.143-4.093-9.143-9.143c0-5.049,4.093-9.143,9.143-9.143H448c5.047-0.005,9.138-4.096,9.143-9.143v-27.429
				c0-5.049,4.093-9.143,9.143-9.143c5.049,0,9.143,4.093,9.143,9.143V402.286z M475.429,182.857c0,5.049-4.093,9.143-9.143,9.143
				c-5.049,0-9.143-4.093-9.143-9.143v-27.429c-0.005-5.047-4.096-9.138-9.143-9.143h-27.429c-5.049,0-9.143-4.093-9.143-9.143
				c0-5.049,4.093-9.143,9.143-9.143H448c15.142,0.017,27.412,12.287,27.429,27.429V182.857z"/>
		</g>
	</g>
</g>
<g>
</g>
<g>
</g>
<g>
</g>
<g>
</g>
<g>
</g>
<g>
</g>
<g>
</g>
<g>
</g>
<g>
</g>
<g>
</g>
<g>
</g>
<g>
</g>
<g>
</g>
<g>
</g>
<g>
</g>
</svg>
